<svg xmlns="http://www.w3.org/2000/svg" viewBox="0 0 500 500"><g id="freepik--Floor--inject-218"><line x1="26.45" y1="467.97" x2="481.15" y2="467.97" style="fill:none;stroke:#263238;stroke-linecap:round;stroke-linejoin:round"></line></g><g id="freepik--Device--inject-218"><path d="M342.65,59.22V438.53a20.5,20.5,0,0,1-20.5,20.5H146.38a20.5,20.5,0,0,1-20.5-20.5V59.22a20.5,20.5,0,0,1,20.5-20.5H322.15A20.5,20.5,0,0,1,342.65,59.22Z" style="fill:#fff"></path><path d="M342.65,61.37a22.56,22.56,0,0,0-5.09-14.3c-10.84,5.25-26.34,16.41-46.42,39.77C248,137,234.77,258.6,183.68,311.45c-21.87,22.63-42,36.53-57.8,45v79.88A22.66,22.66,0,0,0,148.54,459H307.46q1.56-1.93,3.06-4c11.93-16.52,22.89-30.37,32.13-41.43Z" style="fill:#d6d6d6"></path><path d="M125.88,61.37v96.94c17.65-7.87,39-22.83,54.28-51.22,15.48-28.76,35.41-52.18,51.42-68.37h-83A22.66,22.66,0,0,0,125.88,61.37Z" style="fill:#d6d6d6"></path><path d="M142.63,47.81c0,2.57-2.88,3.5-2.9,5.46v.13h2.81v.87H138.8v-.73c0-2.76,2.88-3.29,2.88-5.69,0-.88-.29-1.34-1-1.34s-1,.5-1,1.25v.76h-.89v-.7c0-1.3.59-2.17,1.91-2.17S142.63,46.51,142.63,47.81Z" style="fill:#263238"></path><path d="M147.3,47.8V48a1.68,1.68,0,0,1-1,1.75,1.7,1.7,0,0,1,1,1.77v.66c0,1.3-.61,2.15-1.93,2.15s-1.91-.85-1.91-2.15v-.59h.89v.65c0,.76.32,1.23,1,1.23s1-.45,1-1.32v-.66c0-.84-.35-1.24-1.07-1.26h-.51v-.86h.56a1,1,0,0,0,1-1.16v-.39c0-.88-.31-1.33-1-1.33s-1,.47-1,1.24v.44h-.89V47.8c0-1.3.61-2.15,1.91-2.15S147.3,46.5,147.3,47.8Z" style="fill:#263238"></path><path d="M149.14,48.44v1.19h-.91V48.44Zm0,4.64v1.19h-.91V53.08Z" style="fill:#263238"></path><path d="M151.06,49.21a1.38,1.38,0,0,1,1.27-.7c1.1,0,1.58.8,1.58,2V52.2c0,1.3-.62,2.15-1.92,2.15s-1.91-.85-1.91-2.15v-.58H151v.64c0,.76.31,1.23,1,1.23s1-.47,1-1.23V50.6c0-.77-.31-1.23-1-1.23a.92.92,0,0,0-1,.91v.2h-.89l.24-4.74h3.36v.85H151.2Z" style="fill:#263238"></path><path d="M158.65,47.79v.15h-.89v-.21c0-.77-.31-1.22-1-1.22s-1,.46-1,1.37V49.8a1.36,1.36,0,0,1,1.37-.92c1.1,0,1.59.79,1.59,2v1.3c0,1.3-.65,2.15-2,2.15s-2-.85-2-2.15V47.85c0-1.35.61-2.2,2-2.2S158.65,46.48,158.65,47.79ZM155.72,51v1.28c0,.76.31,1.23,1,1.23s1-.47,1-1.23V51c0-.77-.33-1.23-1-1.23S155.72,50.21,155.72,51Z" style="fill:#263238"></path><rect x="289.33" y="48.16" width="2.41" height="6.02" style="fill:#263238"></rect><rect x="292.54" y="46.96" width="2.41" height="7.22" style="fill:#263238"></rect><rect x="295.75" y="46.1" width="2.41" height="8.08" style="fill:#263238"></rect><rect x="298.96" y="44.61" width="2.41" height="9.57" style="fill:#263238"></rect><path d="M331.16,54H316.72V45.19h14.44Zm-13.64-.8h12.84V46H317.52Z" style="fill:#263238"></path><rect x="318.72" y="46.86" width="7.62" height="5.48" style="fill:#263238"></rect><rect x="330.66" y="48.56" width="1.82" height="2.08" style="fill:#263238"></rect><path d="M311.42,52.09a.58.58,0,0,1-.28-.07c-2.94-1.75-4.88-.13-5-.06a.54.54,0,0,1-.76-.05.55.55,0,0,1,.05-.76c.11-.09,2.59-2.22,6.23-.06a.54.54,0,0,1-.28,1Z" style="fill:#263238"></path><path d="M312.51,50.28a.48.48,0,0,1-.28-.08c-4.25-2.52-7.1-.08-7.13-.05a.55.55,0,0,1-.76,0,.54.54,0,0,1,0-.76s3.48-3,8.4-.06A.54.54,0,0,1,313,50,.53.53,0,0,1,312.51,50.28Z" style="fill:#263238"></path><path d="M313.49,48.18a.52.52,0,0,1-.27-.07c-5.38-3.21-9-.19-9.11-.06a.55.55,0,0,1-.76,0,.53.53,0,0,1,0-.76s4.29-3.68,10.37-.06a.54.54,0,0,1-.28,1Z" style="fill:#263238"></path><path d="M309.8,53a1.36,1.36,0,1,1-1.36-1.35A1.35,1.35,0,0,1,309.8,53Z" style="fill:#263238"></path><path d="M348.48,53.66V66.57h4v36.69h-4v8.34h4v36.69h-4v8.34h4v36.69h-4V444.08A23.89,23.89,0,0,1,324.59,468H144a23.88,23.88,0,0,1-23.89-23.89V132.61h-2.87V95.92h2.87V53.66A23.89,23.89,0,0,1,144,29.77H324.59A23.9,23.9,0,0,1,348.48,53.66ZM286,38.72,279,49.21a11.36,11.36,0,0,1-9.45,5H199a11.38,11.38,0,0,1-9.45-5l-7-10.49H149.77a23.89,23.89,0,0,0-23.89,23.89V435.14A23.9,23.9,0,0,0,149.77,459h169a23.89,23.89,0,0,0,23.89-23.89V62.61a23.88,23.88,0,0,0-23.89-23.89Z" style="fill:#263238"></path><path d="M125.88,432.67v5.86a20.5,20.5,0,0,0,20.5,20.5H322.15a20.5,20.5,0,0,0,20.5-20.5v-5.86Z" style="fill:#263238;stroke:#263238;stroke-linecap:round;stroke-linejoin:round"></path><path d="M144.4,76.49l-15.62,49.74v14.2a11.33,11.33,0,0,1-2.9,7.58V76.49Z" style="fill:#263238;stroke:#263238;stroke-linecap:round;stroke-linejoin:round"></path><path d="M144.6,76.49l-15.55,49.64h0v14.3a11.37,11.37,0,0,0,11.36,11.36h.16a11.37,11.37,0,0,0,11.36-11.36v-14.2l12.15-49.74Z" style="fill:#263238;stroke:#263238;stroke-linecap:round;stroke-linejoin:round"></path><path d="M164.25,76.49l-12.09,49.64h0v14.3a11.37,11.37,0,0,0,11.36,11.36h.16A11.36,11.36,0,0,0,175,140.43v-14.2l8.69-49.74Z" style="fill:#263238;stroke:#263238;stroke-linecap:round;stroke-linejoin:round"></path><path d="M183.9,76.49l-8.64,49.64h0v14.3a11.36,11.36,0,0,0,11.36,11.36h.15a11.36,11.36,0,0,0,11.36-11.36v-14.2l5.22-49.74Z" style="fill:#263238;stroke:#263238;stroke-linecap:round;stroke-linejoin:round"></path><path d="M203.54,76.49l-5.17,49.64h0v14.3a11.36,11.36,0,0,0,11.36,11.36h.16a11.37,11.37,0,0,0,11.36-11.36v-14.2L223,76.49Z" style="fill:#263238;stroke:#263238;stroke-linecap:round;stroke-linejoin:round"></path><path d="M242.63,76.49H223.19l-1.72,49.64h0v14.3a11.37,11.37,0,0,0,11.36,11.36H233a11.37,11.37,0,0,0,11.36-11.36v-14.3h0Z" style="fill:#263238;stroke:#263238;stroke-linecap:round;stroke-linejoin:round"></path><path d="M262.28,76.49H242.83l1.75,49.74v14.2a11.37,11.37,0,0,0,11.36,11.36h.16a11.37,11.37,0,0,0,11.36-11.36v-14.3h0Z" style="fill:#263238;stroke:#263238;stroke-linecap:round;stroke-linejoin:round"></path><path d="M281.92,76.49H262.48l5.22,49.74v14.2a11.36,11.36,0,0,0,11.36,11.36h.15a11.36,11.36,0,0,0,11.36-11.36v-14.3h0Z" style="fill:#263238;stroke:#263238;stroke-linecap:round;stroke-linejoin:round"></path><path d="M301.57,76.49H282.12l8.69,49.74v14.2a11.36,11.36,0,0,0,11.36,11.36h.16a11.37,11.37,0,0,0,11.36-11.36v-14.3h0Z" style="fill:#263238;stroke:#263238;stroke-linecap:round;stroke-linejoin:round"></path><path d="M321.22,76.49H301.77l12.15,49.74v14.2a11.37,11.37,0,0,0,11.36,11.36h.16a11.37,11.37,0,0,0,11.36-11.36v-14.3h0Z" style="fill:#263238;stroke:#263238;stroke-linecap:round;stroke-linejoin:round"></path><path d="M342.65,81.16v69.07a11.35,11.35,0,0,1-5.62-9.8v-14.2L321.41,76.49h19.45Z" style="fill:#263238;stroke:#263238;stroke-linecap:round;stroke-linejoin:round"></path><polygon points="128.79 111.89 105.91 111.89 124.96 62.15 144.41 62.15 128.79 111.89" style="fill:#92E3A9;stroke:#263238;stroke-linecap:round;stroke-linejoin:round"></polygon><path d="M105.91,111.79h22.88a0,0,0,0,1,0,0v14.3a11.36,11.36,0,0,1-11.36,11.36h-.16a11.36,11.36,0,0,1-11.36-11.36v-14.3A0,0,0,0,1,105.91,111.79Z" style="fill:#92E3A9;stroke:#263238;stroke-linecap:round;stroke-linejoin:round"></path><polygon points="151.9 111.89 129.02 111.89 144.6 62.15 164.05 62.15 151.9 111.89" style="fill:#fff;stroke:#263238;stroke-linecap:round;stroke-linejoin:round"></polygon><path d="M129,111.79H151.9a0,0,0,0,1,0,0v14.3a11.36,11.36,0,0,1-11.36,11.36h-.16A11.36,11.36,0,0,1,129,126.09v-14.3A0,0,0,0,1,129,111.79Z" style="fill:#fff;stroke:#263238;stroke-linecap:round;stroke-linejoin:round"></path><polygon points="175.01 111.89 152.13 111.89 164.25 62.15 183.7 62.15 175.01 111.89" style="fill:#92E3A9;stroke:#263238;stroke-linecap:round;stroke-linejoin:round"></polygon><path d="M152.13,111.79H175a0,0,0,0,1,0,0v14.3a11.36,11.36,0,0,1-11.36,11.36h-.16a11.36,11.36,0,0,1-11.36-11.36v-14.3a0,0,0,0,1,0,0Z" style="fill:#92E3A9;stroke:#263238;stroke-linecap:round;stroke-linejoin:round"></path><polygon points="198.12 111.89 175.25 111.89 183.9 62.15 203.34 62.15 198.12 111.89" style="fill:#fff;stroke:#263238;stroke-linecap:round;stroke-linejoin:round"></polygon><path d="M175.25,111.79h22.88a0,0,0,0,1,0,0v14.3a11.36,11.36,0,0,1-11.36,11.36h-.16a11.36,11.36,0,0,1-11.36-11.36v-14.3A0,0,0,0,1,175.25,111.79Z" style="fill:#fff;stroke:#263238;stroke-linecap:round;stroke-linejoin:round"></path><polygon points="221.24 111.89 198.36 111.89 203.54 62.15 222.99 62.15 221.24 111.89" style="fill:#92E3A9;stroke:#263238;stroke-linecap:round;stroke-linejoin:round"></polygon><path d="M198.36,111.79h22.88a0,0,0,0,1,0,0v14.3a11.36,11.36,0,0,1-11.36,11.36h-.16a11.36,11.36,0,0,1-11.36-11.36v-14.3A0,0,0,0,1,198.36,111.79Z" style="fill:#92E3A9;stroke:#263238;stroke-linecap:round;stroke-linejoin:round"></path><polygon points="244.35 111.89 221.47 111.89 223.19 62.15 242.63 62.15 244.35 111.89" style="fill:#fff;stroke:#263238;stroke-linecap:round;stroke-linejoin:round"></polygon><path d="M221.47,111.79h22.88a0,0,0,0,1,0,0v14.3A11.36,11.36,0,0,1,233,137.45h-.16a11.36,11.36,0,0,1-11.36-11.36v-14.3A0,0,0,0,1,221.47,111.79Z" style="fill:#fff;stroke:#263238;stroke-linecap:round;stroke-linejoin:round"></path><polygon points="267.46 111.89 244.58 111.89 242.83 62.15 262.28 62.15 267.46 111.89" style="fill:#92E3A9;stroke:#263238;stroke-linecap:round;stroke-linejoin:round"></polygon><path d="M244.58,111.79h22.88a0,0,0,0,1,0,0v14.3a11.36,11.36,0,0,1-11.36,11.36h-.16a11.36,11.36,0,0,1-11.36-11.36v-14.3A0,0,0,0,1,244.58,111.79Z" style="fill:#92E3A9;stroke:#263238;stroke-linecap:round;stroke-linejoin:round"></path><polygon points="290.57 111.89 267.69 111.89 262.48 62.15 281.92 62.15 290.57 111.89" style="fill:#fff;stroke:#263238;stroke-linecap:round;stroke-linejoin:round"></polygon><path d="M267.7,111.79h22.88a0,0,0,0,1,0,0v14.3a11.36,11.36,0,0,1-11.36,11.36h-.16a11.36,11.36,0,0,1-11.36-11.36v-14.3A0,0,0,0,1,267.7,111.79Z" style="fill:#fff;stroke:#263238;stroke-linecap:round;stroke-linejoin:round"></path><polygon points="313.69 111.89 290.81 111.89 282.12 62.15 301.57 62.15 313.69 111.89" style="fill:#92E3A9;stroke:#263238;stroke-linecap:round;stroke-linejoin:round"></polygon><path d="M290.81,111.79h22.88a0,0,0,0,1,0,0v14.3a11.36,11.36,0,0,1-11.36,11.36h-.16a11.36,11.36,0,0,1-11.36-11.36v-14.3A0,0,0,0,1,290.81,111.79Z" style="fill:#92E3A9;stroke:#263238;stroke-linecap:round;stroke-linejoin:round"></path><polygon points="336.8 111.89 313.92 111.89 301.77 62.15 321.21 62.15 336.8 111.89" style="fill:#fff;stroke:#263238;stroke-linecap:round;stroke-linejoin:round"></polygon><path d="M313.92,111.79H336.8a0,0,0,0,1,0,0v14.3a11.36,11.36,0,0,1-11.36,11.36h-.16a11.36,11.36,0,0,1-11.36-11.36v-14.3A0,0,0,0,1,313.92,111.79Z" style="fill:#fff;stroke:#263238;stroke-linecap:round;stroke-linejoin:round"></path><polygon points="359.91 111.89 337.03 111.89 321.41 62.15 340.86 62.15 359.91 111.89" style="fill:#92E3A9;stroke:#263238;stroke-linecap:round;stroke-linejoin:round"></polygon><path d="M337,111.79h22.88a0,0,0,0,1,0,0v14.3a11.36,11.36,0,0,1-11.36,11.36h-.16A11.36,11.36,0,0,1,337,126.09v-14.3A0,0,0,0,1,337,111.79Z" style="fill:#92E3A9;stroke:#263238;stroke-linecap:round;stroke-linejoin:round"></path><path d="M292.45,301.91H241.37a154.06,154.06,0,0,0,3.59,18.5c2.95,10.63,4.71,23.06,9.9,32.53,6.09,11.13,52.36,11.13,58.45,0,5.19-9.47,6.95-21.9,9.89-32.53a152.36,152.36,0,0,0,3.6-18.5Z" style="fill:#fff;stroke:#263238;stroke-linecap:round;stroke-linejoin:round"></path><path d="M267.33,309V297.44c0-10.62,2.58-20.66,7-27.3h0c5.52-8.28,13.43-7.94,18.74.81l.08.13c4,6.64,6.34,16.21,6.34,26.26v10.78" style="fill:none;stroke:#263238;stroke-linecap:round;stroke-linejoin:round;stroke-width:3px"></path><path d="M264.84,306.32h6a0,0,0,0,1,0,0v10.27a2,2,0,0,1-2,2h-2a2,2,0,0,1-2-2V306.32A0,0,0,0,1,264.84,306.32Z" style="fill:#fff;stroke:#263238;stroke-linecap:round;stroke-linejoin:round"></path><path d="M296.34,306.32h6a0,0,0,0,1,0,0v10.27a2,2,0,0,1-2,2h-2a2,2,0,0,1-2-2V306.32A0,0,0,0,1,296.34,306.32Z" style="fill:#fff;stroke:#263238;stroke-linecap:round;stroke-linejoin:round"></path><path d="M289.28,376H276.55a4.84,4.84,0,0,1-4.84-4.84h0a4.84,4.84,0,0,1,4.84-4.84h12.73a4.84,4.84,0,0,1,4.84,4.84h0A4.84,4.84,0,0,1,289.28,376Z" style="fill:#92E3A9;stroke:#263238;stroke-linecap:round;stroke-linejoin:round"></path><path d="M325.22,208.66A62,62,0,0,1,321,231.09l-.84,2.15a2.13,2.13,0,0,1-2,1.35H249.07a2.12,2.12,0,0,1-2-1.32l-.43-1.07a61.84,61.84,0,0,1,.42-47.9h0A2.1,2.1,0,0,1,249,183h69.22a2.12,2.12,0,0,1,1.95,1.27A62,62,0,0,1,325.22,208.66Z" style="fill:#fff;stroke:#263238;stroke-linecap:round;stroke-linejoin:round"></path><polyline points="261.64 185.43 298.82 149.66 304.02 191.57" style="fill:none;stroke:#263238;stroke-linecap:round;stroke-linejoin:round;stroke-width:3px"></polyline><path d="M298.82,149.66s21.66,14.59,18.83,23.53S301.65,169.9,298.82,149.66Z" style="fill:none;stroke:#263238;stroke-linecap:round;stroke-linejoin:round;stroke-width:3px"></path><path d="M313.58,198.91a44.64,44.64,0,0,1-3,16.15l-.6,1.55a1.52,1.52,0,0,1-1.42,1H258.74a1.51,1.51,0,0,1-1.41-1l-.31-.77a44.54,44.54,0,0,1,.3-34.5h0a1.52,1.52,0,0,1,1.4-.92h49.85a1.51,1.51,0,0,1,1.4.92A44.4,44.4,0,0,1,313.58,198.91Z" style="fill:#fff;stroke:#263238;stroke-linecap:round;stroke-linejoin:round"></path><path d="M297.41,203.32c0,3.9-5.79,7.06-12.94,7.06s-13-3.16-13-7.06,5.8-7.06,13-7.06S297.41,199.42,297.41,203.32Z" style="fill:#fff;stroke:#263238;stroke-linecap:round;stroke-linejoin:round"></path><path d="M267.29,218.15c0,1.69-1,3-2.12,3s-2.12-1.36-2.12-3,.95-3.06,2.12-3.06S267.29,216.46,267.29,218.15Z" style="fill:#fff;stroke:#263238;stroke-linecap:round;stroke-linejoin:round"></path><ellipse cx="302.12" cy="218.15" rx="2.12" ry="3.06" style="fill:#fff;stroke:#263238;stroke-linecap:round;stroke-linejoin:round"></ellipse><path d="M289.28,247.7H276.55a4.84,4.84,0,0,1-4.84-4.84h0a4.84,4.84,0,0,1,4.84-4.84h12.73a4.84,4.84,0,0,1,4.84,4.84h0A4.84,4.84,0,0,1,289.28,247.7Z" style="fill:#92E3A9;stroke:#263238;stroke-linecap:round;stroke-linejoin:round"></path><path d="M224.22,213.32a42.87,42.87,0,0,1-4.21,18.4l-1.36,2.87h-72l-1-2a42.42,42.42,0,0,1,.42-39.3l.55-1.05h72A43.25,43.25,0,0,1,224.22,213.32Z" style="fill:#fff;stroke:#263238;stroke-linecap:round;stroke-linejoin:round"></path><circle cx="162.01" cy="200.83" r="2.67" style="fill:#fff;stroke:#263238;stroke-linecap:round;stroke-linejoin:round"></circle><circle cx="203.03" cy="200.83" r="2.67" style="fill:#fff;stroke:#263238;stroke-linecap:round;stroke-linejoin:round"></circle><rect x="178.79" y="192.28" width="7.7" height="42.31" style="fill:#fff;stroke:#263238;stroke-linecap:round;stroke-linejoin:round"></rect><path d="M162,200.83v-9.28c0-8.52,3.27-16.58,8.88-21.91h0c7-6.65,17-6.37,23.79.65l.1.11a30.52,30.52,0,0,1,8,21.07v8.65" style="fill:none;stroke:#263238;stroke-linecap:round;stroke-linejoin:round;stroke-width:3px"></path><path d="M189,247.7H176.23a4.84,4.84,0,0,1-4.83-4.84h0a4.84,4.84,0,0,1,4.83-4.84H189a4.84,4.84,0,0,1,4.84,4.84h0A4.84,4.84,0,0,1,189,247.7Z" style="fill:#92E3A9;stroke:#263238;stroke-linecap:round;stroke-linejoin:round"></path><path d="M213,295.94H149.78L137.13,347a10.59,10.59,0,0,0,1.15,7.92h0a10.59,10.59,0,0,0,9.13,5.23h67.9a10.59,10.59,0,0,0,9.13-5.23h0A10.6,10.6,0,0,0,225.6,347Z" style="fill:#fff;stroke:#263238;stroke-linecap:round;stroke-linejoin:round"></path><circle cx="156.37" cy="304.6" r="3.22" style="fill:#fff;stroke:#263238;stroke-linecap:round;stroke-linejoin:round"></circle><circle cx="205.82" cy="304.6" r="3.22" style="fill:#fff;stroke:#263238;stroke-linecap:round;stroke-linejoin:round"></circle><path d="M156.37,304.6V293.41c0-10.28,3.94-20,10.71-26.41h0c8.46-8,20.55-7.69,28.68.78l.12.13c6.16,6.42,9.7,15.68,9.7,25.41v10.42" style="fill:none;stroke:#263238;stroke-linecap:round;stroke-linejoin:round;stroke-width:3px"></path><path d="M188.73,311.21H173.47a4.21,4.21,0,0,1-4.22-4.21h0a4.21,4.21,0,0,1,4.22-4.21h15.26a4.2,4.2,0,0,1,4.21,4.21h0A4.2,4.2,0,0,1,188.73,311.21Z" style="fill:#fff;stroke:#263238;stroke-linecap:round;stroke-linejoin:round"></path><path d="M189,376H176.23a4.84,4.84,0,0,1-4.83-4.84h0a4.84,4.84,0,0,1,4.83-4.84H189a4.84,4.84,0,0,1,4.84,4.84h0A4.84,4.84,0,0,1,189,376Z" style="fill:#92E3A9;stroke:#263238;stroke-linecap:round;stroke-linejoin:round"></path><rect x="207.19" y="391.15" width="61.18" height="33.4" rx="4.97" style="fill:#92E3A9;stroke:#263238;stroke-linecap:round;stroke-linejoin:round"></rect><path d="M220.09,416.46V398.24h4.61a11.71,11.71,0,0,1,2.21.2,5,5,0,0,1,1.78.72,3.37,3.37,0,0,1,1.2,1.43,5.9,5.9,0,0,1,.41,2.37,5,5,0,0,1-.31,1.88,2.86,2.86,0,0,1-.9,1.23,3.24,3.24,0,0,1-1.44.6,3.81,3.81,0,0,1,1.77.72,3.43,3.43,0,0,1,1.08,1.49,6.07,6.07,0,0,1,.36,2.22,7.17,7.17,0,0,1-.35,2.39,4.1,4.1,0,0,1-1,1.66,4.23,4.23,0,0,1-1.66,1,7.29,7.29,0,0,1-2.3.33Zm3.71-10.87h.92a3,3,0,0,0,1.47-.28,1.46,1.46,0,0,0,.68-.85,4.41,4.41,0,0,0,.19-1.41,2.68,2.68,0,0,0-.28-1.33,1.63,1.63,0,0,0-.85-.74,4,4,0,0,0-1.45-.22h-.68Zm0,8.26h1a2.26,2.26,0,0,0,1.92-.7,3.44,3.44,0,0,0,.53-2.09,4.78,4.78,0,0,0-.25-1.72,1.76,1.76,0,0,0-.8-.95,3.09,3.09,0,0,0-1.47-.3h-1Z" style="fill:#263238"></path><path d="M238.13,416.7a6.18,6.18,0,0,1-3.22-.7A3.84,3.84,0,0,1,233.3,414a10.26,10.26,0,0,1-.46-3.25V398.24h3.67v13a8.2,8.2,0,0,0,.1,1.32,2.1,2.1,0,0,0,.45,1.06,1.34,1.34,0,0,0,1.07.41,1.38,1.38,0,0,0,1.09-.41,2,2,0,0,0,.44-1.06,9.54,9.54,0,0,0,.09-1.32v-13h3.66V410.7A10,10,0,0,1,243,414a3.8,3.8,0,0,1-1.61,2.05A6.12,6.12,0,0,1,238.13,416.7Z" style="fill:#263238"></path><path d="M248.38,416.46v-7.22l-3.55-11h3.48l2,6.41,1.82-6.41h3.38l-3.51,11v7.22Z" style="fill:#263238"></path></g></svg>
